<svg width="575" height="575" viewBox="0 0 575 575" fill="none" xmlns="http://www.w3.org/2000/svg">
<g opacity="0.06">
<g opacity="0.7">
<path d="M287.63 573.212C393.843 573.212 479.946 487.11 479.946 380.897C479.946 274.684 393.843 188.581 287.63 188.581C181.417 188.581 95.3142 274.684 95.3142 380.897C95.3142 487.11 181.417 573.212 287.63 573.212Z" stroke="white" stroke-width="2.31254" stroke-miterlimit="10"/>
<path d="M287.629 573.21C353.098 573.21 406.172 520.136 406.172 454.667C406.172 389.197 353.098 336.123 287.629 336.123C222.159 336.123 169.085 389.197 169.085 454.667C169.085 520.136 222.159 573.21 287.629 573.21Z" stroke="white" stroke-width="2.31254" stroke-miterlimit="10"/>
<path d="M287.629 573.213C445.598 573.213 573.657 445.154 573.657 287.185C573.657 129.215 445.598 1.15628 287.629 1.15628C129.66 1.15628 1.60083 129.215 1.60083 287.185C1.60083 445.154 129.66 573.213 287.629 573.213Z" stroke="white" stroke-width="2.31254" stroke-miterlimit="10"/>
<path d="M286.587 341.619C290.729 341.619 294.087 338.261 294.087 334.119C294.087 329.976 290.729 326.619 286.587 326.619C282.445 326.619 279.087 329.976 279.087 334.119C279.087 338.261 282.445 341.619 286.587 341.619Z" fill="white"/>
<path d="M118.615 295.97C122.757 295.97 126.115 292.613 126.115 288.47C126.115 284.328 122.757 280.97 118.615 280.97C114.473 280.97 111.115 284.328 111.115 288.47C111.115 292.613 114.473 295.97 118.615 295.97Z" fill="white"/>
<path d="M109.814 60.7504C113.956 60.7504 117.314 57.3925 117.314 53.2504C117.314 49.1083 113.956 45.7504 109.814 45.7504C105.672 45.7504 102.314 49.1083 102.314 53.2504C102.314 57.3925 105.672 60.7504 109.814 60.7504Z" fill="white"/>
<path d="M6.38261 51.1637C5.50385 51.8112 4.13945 51.95 1.75753 51.95V50.2156C5.78135 50.1924 6.63699 49.5681 6.84512 47.3711H8.4639V61.5008H12.3952V63.3508H1.75753V61.5008H6.38261V51.1637ZM20.7003 56.6213V53.9156H23.3828V56.6213H20.7003ZM16.4221 55.465C16.4221 51.0712 17.8327 47.0474 22.0878 47.0474C26.3429 47.0474 27.7073 51.0712 27.7073 55.465C27.7073 59.8589 26.3429 63.6746 22.0878 63.6746C17.8327 63.6746 16.4221 59.8589 16.4221 55.465ZM18.5958 55.465C18.5958 58.7951 19.174 61.8245 22.0878 61.8245C25.0016 61.8245 25.5335 58.7488 25.5335 55.4882C25.5335 52.2275 25.0016 48.8974 22.0878 48.8974C19.1509 48.8974 18.5958 52.2044 18.5958 55.465ZM35.8504 63.3508V60.6914H38.533V63.3508H35.8504ZM52.4575 63.6746C48.9655 63.6746 47.0924 61.3158 46.9999 58.7488H49.1737C49.3124 60.2982 50.168 61.8245 52.365 61.8245C54.3306 61.8245 55.6256 60.437 55.6256 57.8932C55.6256 55.4882 54.4 54.4706 52.5268 54.4706C51.2318 54.4706 50.0987 54.9331 49.3818 55.9738H47.208L48.7805 47.3711H57.0594V49.2212H50.4224L49.5437 54.0544V54.1006C50.3299 53.1756 51.4631 52.6206 53.0587 52.6206C55.88 52.6206 57.7994 54.9331 57.7994 57.8932C57.7994 61.3389 55.4869 63.6746 52.4575 63.6746ZM67.6539 63.6746C63.5375 63.6746 62.0113 60.437 62.0113 55.3725C62.0113 50.2618 64.0694 47.0474 67.7232 47.0474C70.4752 47.0474 72.2558 49.0824 72.4871 51.4181H70.3595C70.1977 49.9381 69.4114 48.8974 67.7232 48.8974C64.8094 48.8974 64.0926 51.9962 64.0926 55.0257V55.2569L64.1388 55.28C64.9019 53.7306 66.3588 52.9212 68.0239 52.9212C70.8914 52.9212 72.8802 55.0488 72.8802 58.1938C72.8802 61.1539 70.8914 63.6746 67.6539 63.6746ZM64.3469 58.3788C64.3469 60.437 65.5263 61.8245 67.6307 61.8245C69.6427 61.8245 70.7064 60.4832 70.7064 58.3326C70.7064 56.0432 69.5502 54.7713 67.7926 54.7713C65.7113 54.7713 64.3469 56.205 64.3469 58.3788ZM76.3983 59.8589L87.6372 49.1749L88.7473 50.3312L77.5083 60.992L76.3983 59.8589ZM76.1902 50.2849C76.1902 48.3424 77.0689 46.6774 79.1965 46.6774C81.3471 46.6774 82.2028 48.3424 82.2028 50.2849C82.2028 52.2275 81.3471 53.8925 79.1965 53.8925C77.0689 53.8925 76.1902 52.2275 76.1902 50.2849ZM77.8089 50.2849C77.8089 51.8112 78.2714 52.6437 79.1965 52.6437C80.1446 52.6437 80.584 51.7881 80.584 50.2849C80.584 48.7818 80.1446 47.9261 79.1965 47.9261C78.2946 47.9261 77.8089 48.7587 77.8089 50.2849ZM82.9428 59.882C82.9428 57.9395 83.8215 56.2744 85.9491 56.2744C88.0997 56.2744 88.9554 57.9395 88.9554 59.882C88.9554 61.8245 88.0997 63.4896 85.9491 63.4896C83.8215 63.4896 82.9428 61.8245 82.9428 59.882ZM84.5616 59.882C84.5616 61.4083 85.0241 62.2408 85.9491 62.2408C86.8972 62.2408 87.3366 61.3851 87.3366 59.882C87.3366 58.3788 86.8972 57.5232 85.9491 57.5232C85.0472 57.5232 84.5616 58.3557 84.5616 59.882Z" fill="white"/>
<path d="M292.787 295.453V292.747H295.47V295.453H292.787ZM288.509 294.297C288.509 289.903 289.92 285.879 294.175 285.879C298.43 285.879 299.794 289.903 299.794 294.297C299.794 298.691 298.43 302.506 294.175 302.506C289.92 302.506 288.509 298.691 288.509 294.297ZM290.683 294.297C290.683 297.627 291.261 300.656 294.175 300.656C297.088 300.656 297.62 297.581 297.62 294.32C297.62 291.059 297.088 287.729 294.175 287.729C291.238 287.729 290.683 291.036 290.683 294.297ZM307.937 302.183V299.523H310.62V302.183H307.937ZM319.087 302.183C319.087 299.408 320.659 297.164 323.642 295.291C326.279 293.649 327.643 292.979 327.643 290.689C327.643 289.371 327.088 287.729 324.914 287.729C322.463 287.729 321.654 289.602 321.654 291.799H319.48C319.48 288.492 321.237 285.879 324.984 285.879C327.643 285.879 329.817 287.614 329.817 290.666C329.817 293.672 327.643 295.106 325.331 296.586C323.203 297.951 322.116 298.783 321.746 300.286V300.333H329.655V302.183H319.087ZM339.671 302.506C336.179 302.506 334.306 300.148 334.214 297.581H336.388C336.526 299.13 337.382 300.656 339.579 300.656C341.544 300.656 342.84 299.269 342.84 296.725C342.84 294.32 341.614 293.302 339.741 293.302C338.446 293.302 337.313 293.765 336.596 294.806H334.422L335.994 286.203H344.273V288.053H337.636L336.758 292.886V292.932C337.544 292.007 338.677 291.452 340.273 291.452C343.094 291.452 345.013 293.765 345.013 296.725C345.013 300.171 342.701 302.506 339.671 302.506ZM348.485 298.691L359.724 288.007L360.834 289.163L349.595 299.824L348.485 298.691ZM348.277 289.117C348.277 287.174 349.156 285.509 351.283 285.509C353.434 285.509 354.29 287.174 354.29 289.117C354.29 291.059 353.434 292.724 351.283 292.724C349.156 292.724 348.277 291.059 348.277 289.117ZM349.896 289.117C349.896 290.643 350.358 291.475 351.283 291.475C352.231 291.475 352.671 290.62 352.671 289.117C352.671 287.614 352.231 286.758 351.283 286.758C350.381 286.758 349.896 287.59 349.896 289.117ZM355.03 298.714C355.03 296.771 355.908 295.106 358.036 295.106C360.187 295.106 361.042 296.771 361.042 298.714C361.042 300.656 360.187 302.321 358.036 302.321C355.908 302.321 355.03 300.656 355.03 298.714ZM356.648 298.714C356.648 300.24 357.111 301.073 358.036 301.073C358.984 301.073 359.423 300.217 359.423 298.714C359.423 297.211 358.984 296.355 358.036 296.355C357.134 296.355 356.648 297.187 356.648 298.714Z" fill="white"/>
<path d="M303.612 409.911C304.008 409.872 304.406 409.939 304.768 410.103C316.38 413.804 326.514 421.102 333.705 430.941C340.896 440.781 344.771 452.652 344.771 464.839C344.771 477.026 340.896 488.897 333.705 498.736C326.514 508.576 316.38 515.873 304.768 519.574C304.406 519.738 304.008 519.804 303.612 519.765C303.216 519.727 302.838 519.585 302.514 519.353C302.191 519.122 301.934 518.81 301.769 518.448C301.605 518.086 301.539 517.687 301.577 517.292V512.824C301.57 512.171 301.764 511.531 302.132 510.992C302.5 510.453 303.025 510.039 303.635 509.807C312.856 506.441 320.818 500.321 326.444 492.277C332.07 484.234 335.088 474.655 335.088 464.839C335.088 455.023 332.07 445.444 326.444 437.4C320.818 429.357 312.856 423.236 303.635 419.869C303.044 419.609 302.538 419.189 302.174 418.656C301.81 418.123 301.603 417.498 301.577 416.853V412.385C301.539 411.989 301.605 411.59 301.769 411.228C301.934 410.867 302.191 410.554 302.514 410.323C302.838 410.092 303.217 409.95 303.612 409.911ZM270.816 409.911C271.212 409.95 271.59 410.092 271.913 410.323C272.236 410.554 272.493 410.866 272.658 411.228C272.822 411.59 272.89 411.989 272.851 412.385V416.852C272.825 417.497 272.618 418.123 272.254 418.656C271.89 419.189 271.384 419.61 270.793 419.869C261.572 423.236 253.609 429.356 247.983 437.399C242.357 445.443 239.34 455.022 239.34 464.838C239.34 474.654 242.357 484.232 247.983 492.276C253.609 500.32 261.572 506.441 270.793 509.807C271.384 510.067 271.89 510.487 272.254 511.02C272.618 511.554 272.825 512.178 272.851 512.823V517.291C272.89 517.687 272.823 518.086 272.658 518.448C272.493 518.81 272.236 519.122 271.913 519.353C271.59 519.584 271.211 519.726 270.816 519.764C270.421 519.803 270.021 519.737 269.659 519.573C258.047 515.872 247.913 508.574 240.722 498.735C233.532 488.896 229.656 477.025 229.656 464.838C229.656 452.651 233.531 440.78 240.722 430.94C247.913 421.101 258.047 413.803 269.659 410.102C270.021 409.938 270.421 409.872 270.816 409.911ZM289.61 426.54C290.245 426.54 290.854 426.791 291.302 427.24C291.751 427.689 292.004 428.299 292.004 428.933V436.625C299.711 437.997 304.627 442.386 306.222 449.679C306.276 450.002 306.258 450.334 306.169 450.65C306.08 450.966 305.923 451.259 305.708 451.508C305.493 451.756 305.226 451.953 304.927 452.087C304.627 452.22 304.301 452.286 303.972 452.279H298.945C298.42 452.272 297.912 452.096 297.495 451.777C297.078 451.458 296.776 451.013 296.632 450.509C295.275 445.897 291.972 443.901 286.243 443.901C279.955 443.901 276.668 446.727 276.668 451.259C276.668 455.79 278.536 458.072 288.254 459.476C301.403 461.28 308.201 465.046 308.201 476.217C308.201 484.786 301.897 491.616 292.004 493.18V500.743C292.004 501.378 291.751 501.987 291.302 502.436C290.854 502.885 290.245 503.137 289.61 503.138H284.822C284.187 503.137 283.578 502.885 283.13 502.436C282.681 501.987 282.428 501.378 282.428 500.743V493.18C271.992 491.775 266.87 485.935 265.481 477.956C265.428 477.635 265.445 477.306 265.532 476.992C265.619 476.678 265.774 476.386 265.985 476.139C266.196 475.891 266.46 475.693 266.756 475.557C267.052 475.422 267.374 475.352 267.7 475.354H273.157C273.712 475.362 274.248 475.559 274.675 475.913C275.101 476.267 275.393 476.758 275.503 477.302C276.444 482.041 279.269 485.695 287.615 485.695C293.807 485.695 298.195 482.232 298.195 477.078C298.195 471.924 295.61 469.96 286.53 468.476C273.189 466.673 266.806 462.604 266.806 452.12C266.806 444.013 272.854 437.694 282.428 436.353V428.933C282.428 428.299 282.681 427.689 283.13 427.24C283.578 426.791 284.187 426.54 284.822 426.54H289.61Z" fill="#D9D9D9" fill-opacity="0.9"/>
</g>
<path d="M29.5195 292.04V288.294H21.7262V286.444L29.5195 276.06H31.6008V286.444H33.8902V288.294H31.6008V292.04H29.5195ZM23.8537 286.444H29.5195V278.951L23.8537 286.444ZM41.6633 292.04V289.38H44.3459V292.04H41.6633ZM56.7672 285.31V282.605H59.4498V285.31H56.7672ZM52.489 284.154C52.489 279.76 53.8997 275.736 58.1547 275.736C62.4098 275.736 63.7742 279.76 63.7742 284.154C63.7742 288.548 62.4098 292.364 58.1547 292.364C53.8997 292.364 52.489 288.548 52.489 284.154ZM54.6628 284.154C54.6628 287.484 55.2409 290.514 58.1547 290.514C61.0686 290.514 61.6004 287.438 61.6004 284.177C61.6004 280.917 61.0686 277.586 58.1547 277.586C55.2178 277.586 54.6628 280.893 54.6628 284.154ZM73.3974 292.364C69.9055 292.364 68.0323 290.005 67.9398 287.438H70.1136C70.2523 288.987 71.108 290.514 73.3049 290.514C75.2706 290.514 76.5656 289.126 76.5656 286.582C76.5656 284.177 75.3399 283.16 73.4668 283.16C72.1718 283.16 71.0386 283.622 70.3217 284.663H68.1479L69.7205 276.06H77.9994V277.91H71.3624L70.4836 282.743V282.79C71.2699 281.865 72.403 281.31 73.9987 281.31C76.82 281.31 78.7394 283.622 78.7394 286.582C78.7394 290.028 76.4268 292.364 73.3974 292.364ZM82.2112 288.548L93.4501 277.864L94.5602 279.02L83.3212 289.681L82.2112 288.548ZM82.0031 278.974C82.0031 277.031 82.8818 275.366 85.0094 275.366C87.16 275.366 88.0157 277.031 88.0157 278.974C88.0157 280.917 87.16 282.582 85.0094 282.582C82.8818 282.582 82.0031 280.917 82.0031 278.974ZM83.6218 278.974C83.6218 280.5 84.0844 281.333 85.0094 281.333C85.9575 281.333 86.3969 280.477 86.3969 278.974C86.3969 277.471 85.9575 276.615 85.0094 276.615C84.1075 276.615 83.6218 277.448 83.6218 278.974ZM88.7557 288.571C88.7557 286.629 89.6345 284.963 91.762 284.963C93.9127 284.963 94.7683 286.629 94.7683 288.571C94.7683 290.514 93.9127 292.179 91.762 292.179C89.6345 292.179 88.7557 290.514 88.7557 288.571ZM90.3745 288.571C90.3745 290.097 90.837 290.93 91.762 290.93C92.7101 290.93 93.1495 290.074 93.1495 288.571C93.1495 287.068 92.7101 286.212 91.762 286.212C90.8601 286.212 90.3745 287.045 90.3745 288.571Z" fill="white"/>
</g>
</svg>
