<svg width="627" height="213" viewBox="0 0 627 213" fill="none" xmlns="http://www.w3.org/2000/svg">
<path opacity="0.5" d="M517.85 111.443V47.8615H562.239V55.5022H526.492V74.149H559.783V81.6077H526.492V103.802H562.967V111.443H517.85Z" fill="white"/>
<path opacity="0.5" d="M475.25 112.898C458.059 112.898 444.597 105.257 444.597 79.6975C444.597 54.2287 458.15 46.4062 475.25 46.4062C489.804 46.4062 500.992 52.1366 503.357 69.7829H494.534C493.078 58.9586 487.439 53.7739 475.25 53.7739C459.514 53.7739 453.693 61.5055 453.693 79.6975C453.693 97.7986 459.514 105.53 475.25 105.53C492.26 105.53 495.352 95.5246 494.806 84.5184H476.433V77.3326H503.993V84.1546C503.993 101.437 495.989 112.898 475.25 112.898Z" fill="white"/>
<path opacity="0.5" d="M377.976 111.443V47.8615H401.353C422.911 47.8615 431.461 58.9586 431.461 79.7885C431.461 100.618 423.274 111.443 402.263 111.443H377.976ZM386.618 103.802H401.262C415.543 103.802 422.365 97.1619 422.365 79.7885C422.365 62.2332 415.543 55.5022 401.262 55.5022H386.618V103.802Z" fill="white"/>
<path opacity="0.5" d="M333.593 112.898C316.856 112.898 303.212 105.439 303.212 79.7885C303.212 54.0468 316.856 46.4062 333.593 46.4062C350.33 46.4062 363.974 54.0468 363.974 79.7885C363.974 105.439 350.33 112.898 333.593 112.898ZM333.593 105.439C349.056 105.439 354.878 97.7076 354.878 79.7885C354.878 61.5965 349.056 53.8649 333.593 53.8649C318.13 53.8649 312.308 61.5965 312.308 79.7885C312.308 97.7076 318.13 105.439 333.593 105.439Z" fill="white"/>
<path opacity="0.5" d="M236.592 111.443V47.8615H259.969C281.527 47.8615 290.077 58.9586 290.077 79.7885C290.077 100.618 281.89 111.443 260.879 111.443H236.592ZM245.233 103.802H259.878C274.159 103.802 280.981 97.1619 280.981 79.7885C280.981 62.2332 274.159 55.5022 259.878 55.5022H245.233V103.802Z" fill="white"/>
<path opacity="0.5" d="M155.078 111.443V47.8615H199.467V55.5022H163.72V74.149H197.011V81.6077H163.72V103.802H200.195V111.443H155.078Z" fill="white"/>
<path opacity="0.5" d="M93.8909 111.443V47.8615H138.279V55.5022H102.532V74.149H135.823V81.6077H102.532V103.802H139.007V111.443H93.8909Z" fill="white"/>
<path opacity="0.5" d="M36.8784 111.443V47.8615H81.2669V55.5022H45.5196V75.5134H78.8109V83.063H45.5196V111.443H36.8784Z" fill="white"/>
<path d="M0 72.6913H626.013V120.979H0V72.6913Z" fill="black"/>
<path opacity="0.5" d="M517.85 154.443V90.8615H562.239V98.5022H526.492V117.149H559.783V124.608H526.492V146.802H562.967V154.443H517.85Z" fill="white"/>
<path opacity="0.5" d="M475.25 155.898C458.059 155.898 444.597 148.257 444.597 122.698C444.597 97.2287 458.15 89.4062 475.25 89.4062C489.804 89.4062 500.992 95.1366 503.357 112.783H494.534C493.078 101.959 487.439 96.7739 475.25 96.7739C459.514 96.7739 453.693 104.506 453.693 122.698C453.693 140.799 459.514 148.53 475.25 148.53C492.26 148.53 495.352 138.525 494.806 127.518H476.433V120.333H503.993V127.155C503.993 144.437 495.989 155.898 475.25 155.898Z" fill="white"/>
<path opacity="0.5" d="M377.976 154.443V90.8615H401.353C422.911 90.8615 431.461 101.959 431.461 122.788C431.461 143.618 423.274 154.443 402.263 154.443H377.976ZM386.618 146.802H401.262C415.543 146.802 422.365 140.162 422.365 122.788C422.365 105.233 415.543 98.5022 401.262 98.5022H386.618V146.802Z" fill="white"/>
<path opacity="0.5" d="M333.593 155.898C316.856 155.898 303.212 148.439 303.212 122.788C303.212 97.0468 316.856 89.4062 333.593 89.4062C350.33 89.4062 363.974 97.0468 363.974 122.788C363.974 148.439 350.33 155.898 333.593 155.898ZM333.593 148.439C349.056 148.439 354.878 140.708 354.878 122.788C354.878 104.596 349.056 96.8649 333.593 96.8649C318.13 96.8649 312.308 104.596 312.308 122.788C312.308 140.708 318.13 148.439 333.593 148.439Z" fill="white"/>
<path opacity="0.5" d="M236.592 154.443V90.8615H259.969C281.527 90.8615 290.077 101.959 290.077 122.788C290.077 143.618 281.89 154.443 260.879 154.443H236.592ZM245.233 146.802H259.878C274.159 146.802 280.981 140.162 280.981 122.788C280.981 105.233 274.159 98.5022 259.878 98.5022H245.233V146.802Z" fill="white"/>
<path opacity="0.5" d="M155.078 154.443V90.8615H199.467V98.5022H163.72V117.149H197.011V124.608H163.72V146.802H200.195V154.443H155.078Z" fill="white"/>
<path opacity="0.5" d="M93.8909 154.443V90.8615H138.279V98.5022H102.532V117.149H135.823V124.608H102.532V146.802H139.007V154.443H93.8909Z" fill="white"/>
<path opacity="0.5" d="M36.8784 154.443V90.8615H81.2669V98.5022H45.5196V118.513H78.8109V126.063H45.5196V154.443H36.8784Z" fill="white"/>
<path d="M0 124.691H626.013V172.979H0V124.691Z" fill="black"/>
<path d="M517.85 211.242V147.661H562.239V155.302H526.492V173.949H559.783V181.407H526.492V203.602H562.967V211.242H517.85Z" fill="white"/>
<path d="M475.25 212.698C458.059 212.698 444.597 205.057 444.597 179.497C444.597 154.028 458.15 146.206 475.25 146.206C489.804 146.206 500.992 151.936 503.357 169.582H494.534C493.078 158.758 487.439 153.574 475.25 153.574C459.514 153.574 453.693 161.305 453.693 179.497C453.693 197.598 459.514 205.33 475.25 205.33C492.26 205.33 495.352 195.324 494.806 184.318H476.433V177.132H503.993V183.954C503.993 201.237 495.989 212.698 475.25 212.698Z" fill="white"/>
<path d="M377.976 211.242V147.661H401.353C422.911 147.661 431.461 158.758 431.461 179.588C431.461 200.418 423.274 211.242 402.263 211.242H377.976ZM386.618 203.602H401.262C415.543 203.602 422.365 196.961 422.365 179.588C422.365 162.033 415.543 155.302 401.262 155.302H386.618V203.602Z" fill="white"/>
<path d="M333.593 212.698C316.856 212.698 303.212 205.239 303.212 179.588C303.212 153.846 316.856 146.206 333.593 146.206C350.33 146.206 363.974 153.846 363.974 179.588C363.974 205.239 350.33 212.698 333.593 212.698ZM333.593 205.239C349.056 205.239 354.878 197.507 354.878 179.588C354.878 161.396 349.056 153.664 333.593 153.664C318.13 153.664 312.308 161.396 312.308 179.588C312.308 197.507 318.13 205.239 333.593 205.239Z" fill="white"/>
<path d="M236.592 211.242V147.661H259.969C281.527 147.661 290.077 158.758 290.077 179.588C290.077 200.418 281.89 211.242 260.879 211.242H236.592ZM245.233 203.602H259.878C274.159 203.602 280.981 196.961 280.981 179.588C280.981 162.033 274.159 155.302 259.878 155.302H245.233V203.602Z" fill="white"/>
<path d="M155.078 211.242V147.661H199.467V155.302H163.72V173.949H197.011V181.407H163.72V203.602H200.195V211.242H155.078Z" fill="white"/>
<path d="M93.8909 211.242V147.661H138.279V155.302H102.532V173.949H135.823V181.407H102.532V203.602H139.007V211.242H93.8909Z" fill="white"/>
<path d="M36.8784 211.242V147.661H81.2669V155.302H45.5196V175.313H78.8109V182.863H45.5196V211.242H36.8784Z" fill="white"/>
<path d="M325.719 14.0873C322.799 14.0873 320.695 12.3619 320.6 9.25248H322.742C322.837 11.0347 323.728 12.324 325.7 12.324C327.387 12.324 327.975 11.376 327.975 10.1246C327.975 8.39928 326.894 8.1528 324.809 7.52712C322.97 6.93936 321.036 6.23784 321.036 3.6972C321.036 1.40304 322.704 0 325.264 0C327.937 0 329.701 1.59264 329.852 4.30392H327.691C327.501 2.6544 326.762 1.76328 325.245 1.76328C323.918 1.76328 323.197 2.38896 323.197 3.58344C323.197 5.06232 324.24 5.4036 325.757 5.85864C327.956 6.52224 330.137 7.16688 330.137 10.0109C330.137 12.343 328.658 14.0873 325.719 14.0873Z" fill="#707070"/>
<path d="M312.985 13.8218V2.06664H309.117V0.265442H318.939V2.06664H315.071V13.8218H312.985Z" fill="#707070"/>
<path d="M298.337 13.8218V0.265442H300.669L304.897 10.6934H304.935V0.265442H306.982V13.8218H304.65L300.365 3.39384H300.327L300.384 13.8218H298.337Z" fill="#707070"/>
<path d="M287.29 13.8218V0.265442H295.728V2.06664H289.395V5.91552H294.912V7.71672H289.395V12.0206H295.898V13.8218H287.29Z" fill="#707070"/>
<path d="M280.245 14.0873C277.325 14.0873 275.22 12.3619 275.125 9.25248H277.268C277.363 11.0347 278.254 12.324 280.226 12.324C281.913 12.324 282.501 11.376 282.501 10.1246C282.501 8.39928 281.42 8.1528 279.335 7.52712C277.495 6.93936 275.561 6.23784 275.561 3.6972C275.561 1.40304 277.23 0 279.79 0C282.463 0 284.226 1.59264 284.378 4.30392H282.216C282.027 2.6544 281.287 1.76328 279.771 1.76328C278.443 1.76328 277.723 2.38896 277.723 3.58344C277.723 5.06232 278.766 5.4036 280.283 5.85864C282.482 6.52224 284.662 7.16688 284.662 10.0109C284.662 12.343 283.183 14.0873 280.245 14.0873Z" fill="#707070"/>
<path d="M264.553 13.8218V0.265442H272.99V2.06664H266.658V5.91552H272.175V7.71672H266.658V12.0206H273.161V13.8218H264.553Z" fill="#707070"/>
<path d="M253.109 13.8218V0.265442H257.962C260.427 0.265442 261.811 1.66848 261.811 4.1712C261.811 5.89656 260.958 7.14792 259.688 7.4892V7.52712C262.323 8.11488 261.356 13.4616 261.963 13.6891V13.8218H259.783C259.271 13.253 260.332 8.51304 257.697 8.51304H255.194V13.8218H253.109ZM255.194 6.71184H257.545C258.948 6.71184 259.745 5.89656 259.745 4.30392C259.745 2.844 259.081 2.06664 257.564 2.06664H255.194V6.71184Z" fill="#707070"/>
<path d="M241.816 13.8218V0.265442H246.802C249.021 0.265442 250.651 1.44096 250.651 4.28496C250.651 7.14792 249.021 8.32344 246.802 8.32344H243.902V13.8218H241.816ZM243.902 6.52224H246.575C247.826 6.52224 248.49 5.82072 248.49 4.28496C248.49 2.7492 247.826 2.06664 246.575 2.06664H243.902V6.52224Z" fill="#707070"/>
</svg>
