<svg width="627" height="213" viewBox="0 0 627 213" fill="none" xmlns="http://www.w3.org/2000/svg">
<path opacity="0.5" d="M517.85 111.443V47.8615H562.239V55.5022H526.492V74.149H559.783V81.6077H526.492V103.802H562.966V111.443H517.85Z" fill="white"/>
<path opacity="0.5" d="M475.25 112.898C458.059 112.898 444.596 105.257 444.596 79.6975C444.596 54.2287 458.15 46.4062 475.25 46.4062C489.804 46.4062 500.992 52.1366 503.357 69.7829H494.534C493.078 58.9586 487.439 53.7739 475.25 53.7739C459.514 53.7739 453.693 61.5055 453.693 79.6975C453.693 97.7986 459.514 105.53 475.25 105.53C492.26 105.53 495.352 95.5246 494.806 84.5184H476.433V77.3326H503.993V84.1546C503.993 101.437 495.989 112.898 475.25 112.898Z" fill="white"/>
<path opacity="0.5" d="M377.976 111.443V47.8615H401.353C422.911 47.8615 431.461 58.9586 431.461 79.7885C431.461 100.618 423.274 111.443 402.263 111.443H377.976ZM386.618 103.802H401.262C415.543 103.802 422.365 97.1619 422.365 79.7885C422.365 62.2332 415.543 55.5022 401.262 55.5022H386.618V103.802Z" fill="white"/>
<path opacity="0.5" d="M333.593 112.898C316.856 112.898 303.212 105.439 303.212 79.7885C303.212 54.0468 316.856 46.4062 333.593 46.4062C350.33 46.4062 363.974 54.0468 363.974 79.7885C363.974 105.439 350.33 112.898 333.593 112.898ZM333.593 105.439C349.056 105.439 354.878 97.7076 354.878 79.7885C354.878 61.5965 349.056 53.8649 333.593 53.8649C318.13 53.8649 312.308 61.5965 312.308 79.7885C312.308 97.7076 318.13 105.439 333.593 105.439Z" fill="white"/>
<path opacity="0.5" d="M236.592 111.443V47.8615H259.969C281.526 47.8615 290.077 58.9586 290.077 79.7885C290.077 100.618 281.89 111.443 260.879 111.443H236.592ZM245.233 103.802H259.878C274.159 103.802 280.981 97.1619 280.981 79.7885C280.981 62.2332 274.159 55.5022 259.878 55.5022H245.233V103.802Z" fill="white"/>
<path opacity="0.5" d="M155.078 111.443V47.8615H199.467V55.5022H163.72V74.149H197.011V81.6077H163.72V103.802H200.195V111.443H155.078Z" fill="white"/>
<path opacity="0.5" d="M93.8909 111.443V47.8615H138.279V55.5022H102.532V74.149H135.823V81.6077H102.532V103.802H139.007V111.443H93.8909Z" fill="white"/>
<path opacity="0.5" d="M36.8784 111.443V47.8615H81.2669V55.5022H45.5196V75.5134H78.8109V83.063H45.5196V111.443H36.8784Z" fill="white"/>
<path d="M0 72.6913H626.013V120.979H0V72.6913Z" fill="black"/>
<path opacity="0.5" d="M517.85 154.443V90.8615H562.239V98.5022H526.492V117.149H559.783V124.608H526.492V146.802H562.966V154.443H517.85Z" fill="white"/>
<path opacity="0.5" d="M475.25 155.898C458.059 155.898 444.596 148.257 444.596 122.698C444.596 97.2287 458.15 89.4062 475.25 89.4062C489.804 89.4062 500.992 95.1366 503.357 112.783H494.534C493.078 101.959 487.439 96.7739 475.25 96.7739C459.514 96.7739 453.693 104.506 453.693 122.698C453.693 140.799 459.514 148.53 475.25 148.53C492.26 148.53 495.352 138.525 494.806 127.518H476.433V120.333H503.993V127.155C503.993 144.437 495.989 155.898 475.25 155.898Z" fill="white"/>
<path opacity="0.5" d="M377.976 154.443V90.8615H401.353C422.911 90.8615 431.461 101.959 431.461 122.788C431.461 143.618 423.274 154.443 402.263 154.443H377.976ZM386.618 146.802H401.262C415.543 146.802 422.365 140.162 422.365 122.788C422.365 105.233 415.543 98.5022 401.262 98.5022H386.618V146.802Z" fill="white"/>
<path opacity="0.5" d="M333.593 155.898C316.856 155.898 303.212 148.439 303.212 122.788C303.212 97.0468 316.856 89.4062 333.593 89.4062C350.33 89.4062 363.974 97.0468 363.974 122.788C363.974 148.439 350.33 155.898 333.593 155.898ZM333.593 148.439C349.056 148.439 354.878 140.708 354.878 122.788C354.878 104.596 349.056 96.8649 333.593 96.8649C318.13 96.8649 312.308 104.596 312.308 122.788C312.308 140.708 318.13 148.439 333.593 148.439Z" fill="white"/>
<path opacity="0.5" d="M236.592 154.443V90.8615H259.969C281.526 90.8615 290.077 101.959 290.077 122.788C290.077 143.618 281.89 154.443 260.879 154.443H236.592ZM245.233 146.802H259.878C274.159 146.802 280.981 140.162 280.981 122.788C280.981 105.233 274.159 98.5022 259.878 98.5022H245.233V146.802Z" fill="white"/>
<path opacity="0.5" d="M155.078 154.443V90.8615H199.467V98.5022H163.72V117.149H197.011V124.608H163.72V146.802H200.195V154.443H155.078Z" fill="white"/>
<path opacity="0.5" d="M93.8909 154.443V90.8615H138.279V98.5022H102.532V117.149H135.823V124.608H102.532V146.802H139.007V154.443H93.8909Z" fill="white"/>
<path opacity="0.5" d="M36.8784 154.443V90.8615H81.2669V98.5022H45.5196V118.513H78.8109V126.063H45.5196V154.443H36.8784Z" fill="white"/>
<path d="M0 124.691H626.013V172.979H0V124.691Z" fill="black"/>
<path d="M517.85 211.242V147.661H562.239V155.302H526.492V173.949H559.783V181.407H526.492V203.602H562.966V211.242H517.85Z" fill="white"/>
<path d="M475.25 212.698C458.059 212.698 444.596 205.057 444.596 179.497C444.596 154.028 458.15 146.206 475.25 146.206C489.804 146.206 500.992 151.936 503.357 169.582H494.534C493.078 158.758 487.439 153.574 475.25 153.574C459.514 153.574 453.693 161.305 453.693 179.497C453.693 197.598 459.514 205.33 475.25 205.33C492.26 205.33 495.352 195.324 494.806 184.318H476.433V177.132H503.993V183.954C503.993 201.237 495.989 212.698 475.25 212.698Z" fill="white"/>
<path d="M377.976 211.242V147.661H401.353C422.911 147.661 431.461 158.758 431.461 179.588C431.461 200.418 423.274 211.242 402.263 211.242H377.976ZM386.618 203.602H401.262C415.543 203.602 422.365 196.961 422.365 179.588C422.365 162.033 415.543 155.302 401.262 155.302H386.618V203.602Z" fill="white"/>
<path d="M333.593 212.698C316.856 212.698 303.212 205.239 303.212 179.588C303.212 153.846 316.856 146.206 333.593 146.206C350.33 146.206 363.974 153.846 363.974 179.588C363.974 205.239 350.33 212.698 333.593 212.698ZM333.593 205.239C349.056 205.239 354.878 197.507 354.878 179.588C354.878 161.396 349.056 153.664 333.593 153.664C318.13 153.664 312.308 161.396 312.308 179.588C312.308 197.507 318.13 205.239 333.593 205.239Z" fill="white"/>
<path d="M236.592 211.242V147.661H259.969C281.526 147.661 290.077 158.758 290.077 179.588C290.077 200.418 281.89 211.242 260.879 211.242H236.592ZM245.233 203.602H259.878C274.159 203.602 280.981 196.961 280.981 179.588C280.981 162.033 274.159 155.302 259.878 155.302H245.233V203.602Z" fill="white"/>
<path d="M155.078 211.242V147.661H199.467V155.302H163.72V173.949H197.011V181.407H163.72V203.602H200.195V211.242H155.078Z" fill="white"/>
<path d="M93.8909 211.242V147.661H138.279V155.302H102.532V173.949H135.823V181.407H102.532V203.602H139.007V211.242H93.8909Z" fill="white"/>
<path d="M36.8784 211.242V147.661H81.2669V155.302H45.5196V175.313H78.8109V182.863H45.5196V211.242H36.8784Z" fill="white"/>
<path d="M352.749 14.0873C349.829 14.0873 347.725 12.3619 347.63 9.25248H349.773C349.867 11.0347 350.758 12.324 352.73 12.324C354.418 12.324 355.006 11.376 355.006 10.1246C355.006 8.39928 353.925 8.1528 351.839 7.52712C350 6.93936 348.066 6.23784 348.066 3.6972C348.066 1.40304 349.735 0 352.294 0C354.968 0 356.731 1.59264 356.883 4.30392H354.721C354.532 2.6544 353.792 1.76328 352.275 1.76328C350.948 1.76328 350.228 2.38896 350.228 3.58344C350.228 5.06232 351.27 5.4036 352.787 5.85864C354.987 6.52224 357.167 7.16688 357.167 10.0109C357.167 12.343 355.688 14.0873 352.749 14.0873Z" fill="#707070"/>
<path d="M340.016 13.8218V2.06664H336.148V0.265442H345.969V2.06664H342.101V13.8218H340.016Z" fill="#707070"/>
<path d="M325.367 13.8218V0.265442H327.699L331.927 10.6934H331.965V0.265442H334.013V13.8218H331.681L327.396 3.39384H327.358L327.415 13.8218H325.367Z" fill="#707070"/>
<path d="M314.321 13.8218V0.265442H322.758V2.06664H316.425V5.91552H321.943V7.71672H316.425V12.0206H322.928V13.8218H314.321Z" fill="#707070"/>
<path d="M307.275 14.0873C304.355 14.0873 302.251 12.3619 302.156 9.25248H304.298C304.393 11.0347 305.284 12.324 307.256 12.324C308.943 12.324 309.531 11.376 309.531 10.1246C309.531 8.39928 308.45 8.1528 306.365 7.52712C304.526 6.93936 302.592 6.23784 302.592 3.6972C302.592 1.40304 304.26 0 306.82 0C309.493 0 311.256 1.59264 311.408 4.30392H309.247C309.057 2.6544 308.318 1.76328 306.801 1.76328C305.474 1.76328 304.753 2.38896 304.753 3.58344C304.753 5.06232 305.796 5.4036 307.313 5.85864C309.512 6.52224 311.693 7.16688 311.693 10.0109C311.693 12.343 310.214 14.0873 307.275 14.0873Z" fill="#707070"/>
<path d="M291.583 13.8218V0.265442H300.021V2.06664H293.688V5.91552H299.205V7.71672H293.688V12.0206H300.191V13.8218H291.583Z" fill="#707070"/>
<path d="M280.139 13.8218V0.265442H284.993C287.458 0.265442 288.842 1.66848 288.842 4.1712C288.842 5.89656 287.988 7.14792 286.718 7.4892V7.52712C289.354 8.11488 288.387 13.4616 288.993 13.6891V13.8218H286.813C286.301 13.253 287.363 8.51304 284.727 8.51304H282.225V13.8218H280.139ZM282.225 6.71184H284.576C285.979 6.71184 286.775 5.89656 286.775 4.30392C286.775 2.844 286.111 2.06664 284.595 2.06664H282.225V6.71184Z" fill="#707070"/>
<path d="M268.846 13.8218V0.265442H273.833C276.051 0.265442 277.682 1.44096 277.682 4.28496C277.682 7.14792 276.051 8.32344 273.833 8.32344H270.932V13.8218H268.846ZM270.932 6.52224H273.605C274.857 6.52224 275.52 5.82072 275.52 4.28496C275.52 2.7492 274.857 2.06664 273.605 2.06664H270.932V6.52224Z" fill="#707070"/>
</svg>
