<svg width="627" height="273" viewBox="0 0 627 273" fill="none" xmlns="http://www.w3.org/2000/svg">
<path d="M407.76 272.483V262.595H404.507V261.08H412.768V262.595H409.515V272.483H407.76Z" fill="#FF9214"/>
<path d="M395.645 272.483V261.08H399.728C401.801 261.08 402.966 262.26 402.966 264.365C402.966 265.817 402.248 266.869 401.179 267.156V267.188C403.396 267.683 402.583 272.18 403.093 272.372V272.483H401.259C400.828 272.005 401.722 268.018 399.505 268.018H397.399V272.483H395.645ZM397.399 266.502H399.377C400.557 266.502 401.227 265.817 401.227 264.477C401.227 263.249 400.669 262.595 399.393 262.595H397.399V266.502Z" fill="#FF9214"/>
<path d="M385.109 272.483L388.57 261.08H390.42L393.913 272.483H392.031L391.313 269.74H387.645L386.943 272.483H385.109ZM388.108 268.257H390.851L389.527 262.707H389.463L388.108 268.257Z" fill="#FF9214"/>
<path d="M379.071 272.483V262.595H375.817V261.08H384.079V262.595H380.825V272.483H379.071Z" fill="#FF9214"/>
<path d="M370.656 272.707C368.2 272.707 366.43 271.255 366.35 268.64H368.152C368.232 270.139 368.981 271.223 370.64 271.223C372.06 271.223 372.554 270.426 372.554 269.373C372.554 267.922 371.645 267.715 369.891 267.188C368.343 266.694 366.717 266.104 366.717 263.967C366.717 262.037 368.12 260.857 370.273 260.857C372.522 260.857 374.005 262.196 374.133 264.477H372.315C372.155 263.089 371.533 262.34 370.257 262.34C369.141 262.34 368.535 262.866 368.535 263.871C368.535 265.115 369.412 265.402 370.688 265.785C372.538 266.343 374.372 266.885 374.372 269.278C374.372 271.239 373.128 272.707 370.656 272.707Z" fill="#FF9214"/>
<path d="M351.275 272.707C348.771 272.707 347.208 270.506 347.208 266.774C347.208 263.042 348.771 260.857 351.275 260.857C353.763 260.857 355.31 263.042 355.31 266.774C355.31 270.506 353.763 272.707 351.275 272.707ZM348.994 266.774C348.994 269.421 349.6 271.191 351.275 271.191C352.901 271.191 353.524 269.453 353.524 266.774C353.524 264.078 352.901 262.372 351.275 262.372C349.6 262.372 348.994 264.126 348.994 266.774Z" fill="#FF9214"/>
<path d="M340.819 272.483V262.595H337.565V261.08H345.826V262.595H342.573V272.483H340.819Z" fill="#FF9214"/>
<path d="M319.061 272.483V261.08H320.783V266.758L324.834 261.08H326.764L323.223 265.801L327.067 272.483H325.042L322.187 267.188L320.783 269.07V272.483H319.061Z" fill="#FF9214"/>
<path d="M313.182 272.707C310.614 272.707 309.274 270.219 309.274 266.79C309.274 263.376 310.63 260.857 313.23 260.857C315.479 260.857 316.627 262.627 316.834 264.955H315.032C314.841 263.488 314.426 262.372 313.166 262.372C311.475 262.372 311.077 264.541 311.077 266.774C311.077 269.022 311.475 271.191 313.182 271.191C314.585 271.191 314.92 269.74 315.032 268.337H316.834C316.659 270.872 315.463 272.707 313.182 272.707Z" fill="#FF9214"/>
<path d="M299.95 272.483V270.968H302.55V262.595H299.95V261.08H306.936V262.595H304.32V270.968H306.936V272.483H299.95Z" fill="#FF9214"/>
<path d="M290.834 272.483V261.08H292.604V270.968H297.836V272.483H290.834Z" fill="#FF9214"/>
<path d="M284.493 272.707C281.925 272.707 280.585 270.219 280.585 266.79C280.585 263.376 281.941 260.857 284.541 260.857C286.789 260.857 287.938 262.627 288.145 264.955H286.343C286.151 263.488 285.737 262.372 284.477 262.372C282.786 262.372 282.387 264.541 282.387 266.774C282.387 269.022 282.786 271.191 284.493 271.191C285.896 271.191 286.231 269.74 286.343 268.337H288.145C287.97 270.872 286.773 272.707 284.493 272.707Z" fill="#FF9214"/>
<path d="M261.762 272.483V261.08H265.845C267.918 261.08 269.082 262.26 269.082 264.365C269.082 265.817 268.365 266.869 267.296 267.156V267.188C269.513 267.683 268.7 272.18 269.21 272.372V272.483H267.376C266.945 272.005 267.838 268.018 265.622 268.018H263.516V272.483H261.762ZM263.516 266.502H265.494C266.674 266.502 267.344 265.817 267.344 264.477C267.344 263.249 266.786 262.595 265.51 262.595H263.516V266.502Z" fill="#FF9214"/>
<path d="M255.644 272.707C253.14 272.707 251.577 270.506 251.577 266.774C251.577 263.042 253.14 260.857 255.644 260.857C258.132 260.857 259.679 263.042 259.679 266.774C259.679 270.506 258.132 272.707 255.644 272.707ZM253.363 266.774C253.363 269.421 253.969 271.191 255.644 271.191C257.271 271.191 257.893 269.453 257.893 266.774C257.893 264.078 257.271 262.372 255.644 262.372C253.969 262.372 253.363 264.126 253.363 266.774Z" fill="#FF9214"/>
<path d="M233.136 272.483V261.08H237.331C239.197 261.08 240.569 262.069 240.569 264.461C240.569 266.869 239.197 267.858 237.331 267.858H234.891V272.483H233.136ZM234.891 266.343H237.14C238.192 266.343 238.75 265.753 238.75 264.461C238.75 263.169 238.192 262.595 237.14 262.595H234.891V266.343Z" fill="#FF9214"/>
<path d="M222.537 272.483L225.998 261.08H227.848L231.341 272.483H229.459L228.741 269.74H225.073L224.371 272.483H222.537ZM225.535 268.257H228.278L226.955 262.707H226.891L225.535 268.257Z" fill="#FF9214"/>
<path d="M216.498 272.483V262.595H213.245V261.08H221.506V262.595H218.253V272.483H216.498Z" fill="#FF9214"/>
<path opacity="0.5" d="M535.856 117.451V53.5056H581.7V62.6926H546.499V79.4293H579.244V88.3433H546.499V108.264H582.428V117.451H535.856Z" fill="white"/>
<path opacity="0.5" d="M492.746 118.906C474.736 118.906 461.274 110.992 461.274 85.5236C461.274 59.9638 474.918 52.0503 492.746 52.0503C508.119 52.0503 519.489 57.9627 521.763 75.6089H510.938C509.574 65.6943 504.48 60.8734 492.746 60.8734C477.92 60.8734 472.28 68.3321 472.28 85.5236C472.28 102.624 477.829 110.083 492.746 110.083C508.391 110.083 511.666 101.351 511.393 90.9812H494.02V82.6129H522.399V89.4349C522.399 107.9 513.758 118.906 492.746 118.906Z" fill="white"/>
<path opacity="0.5" d="M393.051 117.451V53.5056H417.883C439.623 53.5056 448.537 64.6028 448.537 85.5236C448.537 106.535 439.986 117.451 418.793 117.451H393.051ZM403.693 108.264H417.337C430.89 108.264 437.53 101.987 437.53 85.5236C437.53 69.0598 430.89 62.6926 417.337 62.6926H403.693V108.264Z" fill="white"/>
<path opacity="0.5" d="M348.16 118.906C330.969 118.906 316.87 111.447 316.87 85.5236C316.87 59.6909 330.969 52.0503 348.16 52.0503C365.352 52.0503 379.45 59.6909 379.45 85.5236C379.45 111.447 365.352 118.906 348.16 118.906ZM348.16 109.901C362.714 109.901 368.444 102.533 368.444 85.5236C368.444 68.4231 362.714 61.0553 348.16 61.0553C333.607 61.0553 327.876 68.4231 327.876 85.5236C327.876 102.533 333.607 109.901 348.16 109.901Z" fill="white"/>
<path opacity="0.5" d="M248.647 117.451V53.5056H273.479C295.218 53.5056 304.132 64.6028 304.132 85.5236C304.132 106.535 295.582 117.451 274.388 117.451H248.647ZM259.289 108.264H272.933C286.486 108.264 293.126 101.987 293.126 85.5236C293.126 69.0598 286.486 62.6926 272.933 62.6926H259.289V108.264Z" fill="white"/>
<path opacity="0.5" d="M165.978 117.451V53.5056H211.822V62.6926H176.62V79.4293H209.366V88.3433H176.62V108.264H212.55V117.451H165.978Z" fill="white"/>
<path opacity="0.5" d="M103.813 117.451V53.5056H149.657V62.6926H114.456V79.4293H147.201V88.3433H114.456V108.264H150.385V117.451H103.813Z" fill="white"/>
<path opacity="0.5" d="M45.6462 117.451V53.5056H91.4901V62.6926H56.2886V80.9756H89.0342V90.1625H56.2886V117.451H45.6462Z" fill="white"/>
<rect y="78.6992" width="626.013" height="48.2875" fill="black"/>
<path opacity="0.5" d="M535.856 160.451V96.5056H581.7V105.693H546.499V122.429H579.244V131.343H546.499V151.264H582.428V160.451H535.856Z" fill="white"/>
<path opacity="0.5" d="M492.746 161.906C474.736 161.906 461.274 153.992 461.274 128.524C461.274 102.964 474.918 95.0503 492.746 95.0503C508.119 95.0503 519.489 100.963 521.763 118.609H510.938C509.574 108.694 504.48 103.873 492.746 103.873C477.92 103.873 472.28 111.332 472.28 128.524C472.28 145.624 477.829 153.083 492.746 153.083C508.391 153.083 511.666 144.351 511.393 133.981H494.02V125.613H522.399V132.435C522.399 150.9 513.758 161.906 492.746 161.906Z" fill="white"/>
<path opacity="0.5" d="M393.051 160.451V96.5056H417.883C439.623 96.5056 448.537 107.603 448.537 128.524C448.537 149.535 439.986 160.451 418.793 160.451H393.051ZM403.693 151.264H417.337C430.89 151.264 437.53 144.987 437.53 128.524C437.53 112.06 430.89 105.693 417.337 105.693H403.693V151.264Z" fill="white"/>
<path opacity="0.5" d="M348.16 161.906C330.969 161.906 316.87 154.447 316.87 128.524C316.87 102.691 330.969 95.0503 348.16 95.0503C365.352 95.0503 379.45 102.691 379.45 128.524C379.45 154.447 365.352 161.906 348.16 161.906ZM348.16 152.901C362.714 152.901 368.444 145.533 368.444 128.524C368.444 111.423 362.714 104.055 348.16 104.055C333.607 104.055 327.876 111.423 327.876 128.524C327.876 145.533 333.607 152.901 348.16 152.901Z" fill="white"/>
<path opacity="0.5" d="M248.647 160.451V96.5056H273.479C295.218 96.5056 304.132 107.603 304.132 128.524C304.132 149.535 295.582 160.451 274.388 160.451H248.647ZM259.289 151.264H272.933C286.486 151.264 293.126 144.987 293.126 128.524C293.126 112.06 286.486 105.693 272.933 105.693H259.289V151.264Z" fill="white"/>
<path opacity="0.5" d="M165.978 160.451V96.5056H211.822V105.693H176.62V122.429H209.366V131.343H176.62V151.264H212.55V160.451H165.978Z" fill="white"/>
<path opacity="0.5" d="M103.813 160.451V96.5056H149.657V105.693H114.456V122.429H147.201V131.343H114.456V151.264H150.385V160.451H103.813Z" fill="white"/>
<path opacity="0.5" d="M45.6462 160.451V96.5056H91.4901V105.693H56.2886V123.976H89.0342V133.163H56.2886V160.451H45.6462Z" fill="white"/>
<rect y="130.699" width="626.013" height="48.2875" fill="black"/>
<path d="M535.856 217.25V153.305H581.7V162.492H546.499V179.229H579.244V188.143H546.499V208.063H582.428V217.25H535.856Z" fill="white"/>
<path d="M492.746 218.706C474.736 218.706 461.274 210.792 461.274 185.323C461.274 159.763 474.918 151.85 492.746 151.85C508.119 151.85 519.489 157.762 521.763 175.409H510.938C509.574 165.494 504.48 160.673 492.746 160.673C477.92 160.673 472.28 168.132 472.28 185.323C472.28 202.424 477.829 209.882 492.746 209.882C508.391 209.882 511.666 201.15 511.393 190.781H494.02V182.412H522.399V189.234C522.399 207.699 513.758 218.706 492.746 218.706Z" fill="white"/>
<path d="M393.051 217.25V153.305H417.883C439.623 153.305 448.537 164.402 448.537 185.323C448.537 206.335 439.986 217.25 418.793 217.25H393.051ZM403.693 208.063H417.337C430.89 208.063 437.53 201.787 437.53 185.323C437.53 168.859 430.89 162.492 417.337 162.492H403.693V208.063Z" fill="white"/>
<path d="M348.16 218.706C330.969 218.706 316.87 211.247 316.87 185.323C316.87 159.491 330.969 151.85 348.16 151.85C365.352 151.85 379.45 159.491 379.45 185.323C379.45 211.247 365.352 218.706 348.16 218.706ZM348.16 209.7C362.714 209.7 368.444 202.333 368.444 185.323C368.444 168.223 362.714 160.855 348.16 160.855C333.607 160.855 327.876 168.223 327.876 185.323C327.876 202.333 333.607 209.7 348.16 209.7Z" fill="white"/>
<path d="M248.647 217.25V153.305H273.479C295.218 153.305 304.132 164.402 304.132 185.323C304.132 206.335 295.582 217.25 274.388 217.25H248.647ZM259.289 208.063H272.933C286.486 208.063 293.126 201.787 293.126 185.323C293.126 168.859 286.486 162.492 272.933 162.492H259.289V208.063Z" fill="white"/>
<path d="M165.978 217.25V153.305H211.822V162.492H176.62V179.229H209.366V188.143H176.62V208.063H212.55V217.25H165.978Z" fill="white"/>
<path d="M103.813 217.25V153.305H149.657V162.492H114.456V179.229H147.201V188.143H114.456V208.063H150.385V217.25H103.813Z" fill="white"/>
<path d="M45.6462 217.25V153.305H91.4901V162.492H56.2886V180.775H89.0342V189.962H56.2886V217.25H45.6462Z" fill="white"/>
<path d="M346.449 11.8543C343.992 11.8543 342.221 10.4024 342.141 7.78589H343.944C344.024 9.28561 344.774 10.3705 346.433 10.3705C347.853 10.3705 348.348 9.57279 348.348 8.51979C348.348 7.06794 347.438 6.86053 345.683 6.33403C344.136 5.83945 342.508 5.24913 342.508 3.11124C342.508 1.18075 343.912 0.00012207 346.066 0.00012207C348.316 0.00012207 349.8 1.34029 349.927 3.62178H348.108C347.949 2.23374 347.327 1.48388 346.05 1.48388C344.933 1.48388 344.327 2.01038 344.327 3.01551C344.327 4.25996 345.205 4.54714 346.481 4.93004C348.332 5.48845 350.167 6.0309 350.167 8.42407C350.167 10.3865 348.922 11.8543 346.449 11.8543Z" fill="#707070"/>
<path d="M335.736 11.6308V1.73903H332.481V0.223358H340.745V1.73903H337.491V11.6308H335.736Z" fill="#707070"/>
<path d="M323.408 11.6308V0.223358H325.371L328.929 8.9983H328.961V0.223358H330.684V11.6308H328.721L325.116 2.85584H325.084L325.132 11.6308H323.408Z" fill="#707070"/>
<path d="M314.113 11.6308V0.223358H321.213V1.73903H315.884V4.97778H320.527V6.49345H315.884V10.1151H321.356V11.6308H314.113Z" fill="#707070"/>
<path d="M308.184 11.8543C305.727 11.8543 303.956 10.4024 303.876 7.78589H305.679C305.759 9.28561 306.508 10.3705 308.168 10.3705C309.588 10.3705 310.082 9.57279 310.082 8.51979C310.082 7.06794 309.173 6.86053 307.418 6.33403C305.87 5.83945 304.243 5.24913 304.243 3.11124C304.243 1.18075 305.647 0.00012207 307.801 0.00012207C310.05 0.00012207 311.534 1.34029 311.662 3.62178H309.843C309.683 2.23374 309.061 1.48388 307.785 1.48388C306.668 1.48388 306.062 2.01038 306.062 3.01551C306.062 4.25996 306.939 4.54714 308.216 4.93004C310.066 5.48845 311.901 6.0309 311.901 8.42407C311.901 10.3865 310.657 11.8543 308.184 11.8543Z" fill="#707070"/>
<path d="M294.98 11.6308V0.223358H302.08V1.73903H296.751V4.97778H301.394V6.49345H296.751V10.1151H302.224V11.6308H294.98Z" fill="#707070"/>
<path d="M285.348 11.6308V0.223358H289.433C291.507 0.223358 292.672 1.40399 292.672 3.50997C292.672 4.96183 291.954 6.01482 290.885 6.302V6.33391C293.102 6.82849 292.289 11.3276 292.799 11.5191V11.6308H290.964C290.534 11.1521 291.427 7.16354 289.209 7.16354H287.103V11.6308H285.348ZM287.103 5.64787H289.082C290.262 5.64787 290.933 4.96183 290.933 3.62165C290.933 2.39316 290.374 1.73903 289.098 1.73903H287.103V5.64787Z" fill="#707070"/>
<path d="M275.847 11.6308V0.223358H280.043C281.909 0.223358 283.282 1.21253 283.282 3.6057C283.282 6.01482 281.909 7.00399 280.043 7.00399H277.602V11.6308H275.847ZM277.602 5.48832H279.851C280.904 5.48832 281.463 4.89801 281.463 3.6057C281.463 2.31339 280.904 1.73903 279.851 1.73903H277.602V5.48832Z" fill="#707070"/>
</svg>
